<mxfile host="app.diagrams.net" modified="2021-05-27T07:26:41.266Z" agent="5.0 (Macintosh; Intel Mac OS X 10_15_6) AppleWebKit/537.36 (KHTML, like Gecko) Chrome/89.0.4389.90 Safari/537.36" etag="uCdUVJDD5petCfisXzFA" version="14.6.1" type="github">
  <diagram id="JzH0cD8IqDB-JwEDU39q" name="Page-1">
    <mxGraphModel dx="558" dy="736" grid="1" gridSize="10" guides="1" tooltips="1" connect="1" arrows="1" fold="1" page="1" pageScale="1" pageWidth="827" pageHeight="1169" math="0" shadow="0">
      <root>
        <mxCell id="0" />
        <mxCell id="1" parent="0" />
        <mxCell id="mofUgr8IY_09yKF336l1-3" style="edgeStyle=orthogonalEdgeStyle;rounded=0;orthogonalLoop=1;jettySize=auto;html=1;exitX=0.5;exitY=1;exitDx=0;exitDy=0;" edge="1" parent="1" source="mofUgr8IY_09yKF336l1-1">
          <mxGeometry relative="1" as="geometry">
            <mxPoint x="190" y="320" as="targetPoint" />
          </mxGeometry>
        </mxCell>
        <mxCell id="mofUgr8IY_09yKF336l1-1" value="缓存" style="rounded=0;whiteSpace=wrap;html=1;" vertex="1" parent="1">
          <mxGeometry x="130" y="200" width="120" height="60" as="geometry" />
        </mxCell>
        <mxCell id="mofUgr8IY_09yKF336l1-6" style="edgeStyle=orthogonalEdgeStyle;rounded=0;orthogonalLoop=1;jettySize=auto;html=1;exitX=1;exitY=0.5;exitDx=0;exitDy=0;entryX=0;entryY=0.5;entryDx=0;entryDy=0;" edge="1" parent="1" source="mofUgr8IY_09yKF336l1-2" target="mofUgr8IY_09yKF336l1-5">
          <mxGeometry relative="1" as="geometry" />
        </mxCell>
        <mxCell id="mofUgr8IY_09yKF336l1-8" style="edgeStyle=orthogonalEdgeStyle;rounded=0;orthogonalLoop=1;jettySize=auto;html=1;" edge="1" parent="1" source="mofUgr8IY_09yKF336l1-2">
          <mxGeometry relative="1" as="geometry">
            <mxPoint x="190" y="470" as="targetPoint" />
          </mxGeometry>
        </mxCell>
        <mxCell id="mofUgr8IY_09yKF336l1-2" value="是否强缓存&lt;br&gt;cache-control&lt;br&gt;expires&lt;br&gt;(cache-control优先)" style="rhombus;whiteSpace=wrap;html=1;" vertex="1" parent="1">
          <mxGeometry x="115" y="320" width="150" height="90" as="geometry" />
        </mxCell>
        <mxCell id="mofUgr8IY_09yKF336l1-5" value="返回200，读取本地缓存，有空内容请求" style="rounded=0;whiteSpace=wrap;html=1;" vertex="1" parent="1">
          <mxGeometry x="340" y="335" width="120" height="60" as="geometry" />
        </mxCell>
        <mxCell id="mofUgr8IY_09yKF336l1-7" value="是" style="text;html=1;align=center;verticalAlign=middle;resizable=0;points=[];autosize=1;strokeColor=none;" vertex="1" parent="1">
          <mxGeometry x="275" y="330" width="30" height="20" as="geometry" />
        </mxCell>
        <mxCell id="mofUgr8IY_09yKF336l1-11" style="edgeStyle=orthogonalEdgeStyle;rounded=0;orthogonalLoop=1;jettySize=auto;html=1;exitX=0.5;exitY=1;exitDx=0;exitDy=0;" edge="1" parent="1" source="mofUgr8IY_09yKF336l1-9" target="mofUgr8IY_09yKF336l1-12">
          <mxGeometry relative="1" as="geometry">
            <mxPoint x="190" y="590" as="targetPoint" />
          </mxGeometry>
        </mxCell>
        <mxCell id="mofUgr8IY_09yKF336l1-9" value="协商缓存" style="rounded=0;whiteSpace=wrap;html=1;" vertex="1" parent="1">
          <mxGeometry x="130" y="470" width="120" height="60" as="geometry" />
        </mxCell>
        <mxCell id="mofUgr8IY_09yKF336l1-10" value="否" style="text;html=1;align=center;verticalAlign=middle;resizable=0;points=[];autosize=1;strokeColor=none;" vertex="1" parent="1">
          <mxGeometry x="205" y="420" width="30" height="20" as="geometry" />
        </mxCell>
        <mxCell id="mofUgr8IY_09yKF336l1-13" style="edgeStyle=orthogonalEdgeStyle;rounded=0;orthogonalLoop=1;jettySize=auto;html=1;exitX=1;exitY=0.5;exitDx=0;exitDy=0;" edge="1" parent="1" source="mofUgr8IY_09yKF336l1-12">
          <mxGeometry relative="1" as="geometry">
            <mxPoint x="330" y="600" as="targetPoint" />
          </mxGeometry>
        </mxCell>
        <mxCell id="mofUgr8IY_09yKF336l1-16" style="edgeStyle=orthogonalEdgeStyle;rounded=0;orthogonalLoop=1;jettySize=auto;html=1;exitX=0.5;exitY=1;exitDx=0;exitDy=0;" edge="1" parent="1" source="mofUgr8IY_09yKF336l1-12">
          <mxGeometry relative="1" as="geometry">
            <mxPoint x="300" y="710" as="targetPoint" />
          </mxGeometry>
        </mxCell>
        <mxCell id="mofUgr8IY_09yKF336l1-12" value="发送请求服务端，使用if-not-match请求首部判断&lt;br&gt;Etag是否改变改变" style="rhombus;whiteSpace=wrap;html=1;" vertex="1" parent="1">
          <mxGeometry x="120" y="560" width="140" height="80" as="geometry" />
        </mxCell>
        <mxCell id="mofUgr8IY_09yKF336l1-14" value="是" style="text;html=1;align=center;verticalAlign=middle;resizable=0;points=[];autosize=1;strokeColor=none;" vertex="1" parent="1">
          <mxGeometry x="275" y="570" width="30" height="20" as="geometry" />
        </mxCell>
        <mxCell id="mofUgr8IY_09yKF336l1-19" style="edgeStyle=orthogonalEdgeStyle;rounded=0;orthogonalLoop=1;jettySize=auto;html=1;exitX=1;exitY=0.5;exitDx=0;exitDy=0;" edge="1" parent="1" source="mofUgr8IY_09yKF336l1-15">
          <mxGeometry relative="1" as="geometry">
            <mxPoint x="520" y="600" as="targetPoint" />
          </mxGeometry>
        </mxCell>
        <mxCell id="mofUgr8IY_09yKF336l1-25" value="" style="edgeStyle=orthogonalEdgeStyle;rounded=0;orthogonalLoop=1;jettySize=auto;html=1;" edge="1" parent="1" source="mofUgr8IY_09yKF336l1-15" target="mofUgr8IY_09yKF336l1-18">
          <mxGeometry relative="1" as="geometry" />
        </mxCell>
        <mxCell id="mofUgr8IY_09yKF336l1-15" value="发送请求服务器，使用if-modified-since判断Last-Modified内容&lt;br&gt;是否改变" style="rhombus;whiteSpace=wrap;html=1;" vertex="1" parent="1">
          <mxGeometry x="330" y="560" width="130" height="80" as="geometry" />
        </mxCell>
        <mxCell id="mofUgr8IY_09yKF336l1-17" value="否&lt;br&gt;" style="text;html=1;align=center;verticalAlign=middle;resizable=0;points=[];autosize=1;strokeColor=none;" vertex="1" parent="1">
          <mxGeometry x="220" y="650" width="30" height="20" as="geometry" />
        </mxCell>
        <mxCell id="mofUgr8IY_09yKF336l1-18" value="返回304，读取本地缓存" style="rounded=0;whiteSpace=wrap;html=1;" vertex="1" parent="1">
          <mxGeometry x="240" y="710" width="120" height="60" as="geometry" />
        </mxCell>
        <mxCell id="mofUgr8IY_09yKF336l1-20" value="是" style="text;html=1;align=center;verticalAlign=middle;resizable=0;points=[];autosize=1;strokeColor=none;" vertex="1" parent="1">
          <mxGeometry x="475" y="570" width="30" height="20" as="geometry" />
        </mxCell>
        <mxCell id="mofUgr8IY_09yKF336l1-28" value="返回200，获取远程最新资源，更新Etag" style="rounded=0;whiteSpace=wrap;html=1;" vertex="1" parent="1">
          <mxGeometry x="520" y="570" width="120" height="60" as="geometry" />
        </mxCell>
      </root>
    </mxGraphModel>
  </diagram>
</mxfile>
